<svg width="50"
    height="50"
    viewBox="0 0 60 60"
    fill="none"
    xmlns="http://www.w3.org/2000/svg"
    >
    <path
        d="M17.5752 0.210042C14.3832 0.360542 12.2035 0.870043 10.2977 1.61854C8.32571 2.38729 6.65396 3.41854 4.99071 5.0878C3.32771 6.75705 2.30321 8.4298 1.5402 10.4053C0.801704 12.3148 0.301204 14.4966 0.160204 17.6903C0.019204 20.8841 -0.012046 21.9108 0.00370397 30.0578C0.019204 38.2043 0.055204 39.2256 0.209954 42.4261C0.362454 45.6173 0.869954 47.7966 1.6187 49.7028C2.38871 51.6751 3.41871 53.3461 5.08871 55.0098C6.75846 56.6736 8.42996 57.6956 10.41 58.4598C12.318 59.1973 14.5002 59.7001 17.6935 59.8398C20.8867 59.9798 21.9145 60.0123 30.059 59.9966C38.2035 59.9811 39.229 59.9448 42.4285 59.7931C45.6285 59.6413 47.796 59.1301 49.703 58.3848C51.6752 57.6133 53.3475 56.5848 55.01 54.9146C56.6725 53.2441 57.6962 51.5701 58.4587 49.5936C59.198 47.6856 59.7002 45.5036 59.8387 42.3126C59.9787 39.1103 60.0117 38.0881 59.9962 29.9426C59.9805 21.7968 59.9437 20.7756 59.792 17.5763C59.6402 14.3771 59.132 12.2046 58.3837 10.2971C57.6127 8.3248 56.5837 6.65505 54.9147 4.99005C53.2455 3.32504 51.57 2.30204 49.5945 1.54129C47.685 0.802543 45.5042 0.299292 42.311 0.161292C39.1177 0.023292 38.09 -0.012458 29.9425 0.00354198C21.795 0.019042 20.775 0.054042 17.5752 0.210042ZM17.9257 54.4428C15.0007 54.3156 13.4125 53.8296 12.354 53.4228C10.9525 52.8828 9.95396 52.2301 8.89921 51.1853C7.84421 50.1408 7.19646 49.1388 6.64921 47.7403C6.23821 46.6818 5.74321 45.0953 5.60646 42.1703C5.45771 39.0091 5.42646 38.0598 5.40896 30.0503C5.39146 22.0411 5.42221 21.0928 5.56071 17.9303C5.68571 15.0078 6.17471 13.4178 6.58071 12.3598C7.12071 10.9566 7.77121 9.9598 8.81821 8.9058C9.86521 7.85155 10.8642 7.2023 12.264 6.65505C13.3215 6.2423 14.9077 5.75155 17.8315 5.6123C20.9952 5.4623 21.9432 5.4323 29.9515 5.4148C37.9597 5.3973 38.9102 5.4273 42.0752 5.5668C44.9977 5.6938 46.5885 6.17805 47.6452 6.5868C49.0472 7.1268 50.0452 7.7753 51.0992 8.8243C52.1535 9.8728 52.8032 10.8683 53.3505 12.2711C53.7637 13.3253 54.2547 14.9111 54.3927 17.8368C54.5432 21.0006 54.5775 21.9493 54.5917 29.9568C54.6062 37.9643 54.578 38.9153 54.4392 42.0768C54.3117 45.0018 53.8267 46.5906 53.4192 47.6503C52.8792 49.0513 52.2285 50.0503 51.1807 51.1038C50.1332 52.1576 49.1355 52.8066 47.735 53.3538C46.679 53.7661 45.0907 54.2581 42.1695 54.3973C39.0055 54.5461 38.0575 54.5773 30.0462 54.5948C22.035 54.6123 21.0895 54.5798 17.9257 54.4428ZM42.3825 13.9661C42.3837 14.6781 42.596 15.3739 42.9926 15.9652C43.3893 16.5566 43.9524 17.0171 44.6107 17.2885C45.2691 17.5598 45.9931 17.6298 46.6912 17.4896C47.3894 17.3494 48.0303 17.0053 48.5328 16.5009C49.0354 15.9964 49.3771 15.3542 49.5147 14.6556C49.6522 13.9569 49.5795 13.2331 49.3057 12.5758C49.0319 11.9185 48.5693 11.3571 47.9764 10.9627C47.3836 10.5683 46.6871 10.3586 45.975 10.3601C45.0205 10.362 44.1058 10.743 43.4321 11.4192C42.7584 12.0955 42.3809 13.0115 42.3825 13.9661ZM14.5962 30.0301C14.613 38.5381 21.5227 45.4193 30.0287 45.4033C38.5352 45.3871 45.4212 38.4781 45.4052 29.9701C45.389 21.4621 38.4777 14.5788 29.9702 14.5956C21.4627 14.6123 14.5802 21.5231 14.5962 30.0301ZM20 30.0193C19.9961 28.0415 20.5787 26.107 21.6743 24.4603C22.7698 22.8137 24.3291 21.5289 26.1548 20.7684C27.9806 20.0079 29.9908 19.8059 31.9314 20.1879C33.872 20.5699 35.6557 21.5187 37.057 22.9145C38.4582 24.3102 39.4142 26.0901 39.8039 28.0292C40.1936 29.9682 39.9996 31.9792 39.2464 33.808C38.4931 35.6367 37.2145 37.2011 35.5723 38.3032C33.93 39.4053 31.9978 39.9956 30.02 39.9996C28.7067 40.0023 27.4057 39.7464 26.1914 39.2463C24.9771 38.7462 23.8731 38.0118 22.9427 37.085C22.0122 36.1582 21.2734 35.0572 20.7685 33.8449C20.2636 32.6325 20.0024 31.3326 20 30.0193Z"
        fill="#BFBFBF"
    />
</svg>